<svg width="24" height="22" viewBox="0 0 24 22" fill="none" xmlns="http://www.w3.org/2000/svg">
<path d="M18.718 7.62185C20.0154 6.94341 22.3212 5.73254 23.5928 5.06548L14.0222 0.0472673C13.9001 -0.0157558 13.7536 -0.0157558 13.6315 0.0472673L9.24902 2.34367L10.0791 2.80846L18.718 7.62185Z" fill="white"/>
<path d="M9.24109 3.24568L8.41098 2.78482L4.06104 5.06547C4.77937 5.44904 12.8906 9.6942 13.827 10.1861L17.8759 8.063L9.24109 3.24568Z" fill="white"/>
<path d="M4.46813 6.1762C4.32543 6.10081 3.78687 5.81579 3.6543 5.74686V10.2412C4.16925 10.2402 5.56274 10.2419 6.0958 10.2412C6.3196 10.2412 6.50272 10.4184 6.50272 10.6351C6.50272 10.8517 6.3196 11.029 6.0958 11.029C5.55712 11.0278 4.17527 11.0298 3.6543 11.029V12.6046C4.18593 12.6046 6.73246 12.6045 7.31655 12.6046C7.54035 12.6046 7.72347 12.7818 7.72347 12.9984C7.72347 13.2151 7.54035 13.3923 7.31655 13.3923C6.71822 13.3924 4.20111 13.3923 3.6543 13.3923V15.7557C3.6543 15.9014 3.73568 16.0314 3.86589 16.1023L13.4203 21.1127C13.4203 21.352 13.4203 11.0333 13.4203 10.8714L5.05816 6.48344L4.46813 6.1762Z" fill="white"/>
<path d="M23.7964 5.85715C22.6306 6.46603 20.3055 7.68765 19.1169 8.31111V12.6046C19.1068 13.1215 18.3133 13.1224 18.3031 12.6046V8.73651L14.2339 10.8714V21.1127L23.7883 16.1023C23.9185 16.0314 23.9999 15.9014 23.9999 15.7557V5.74686L23.7964 5.85715Z" fill="white"/>
<path d="M0.398814 10.2413C-0.132782 10.2447 -0.133108 11.0257 0.398855 11.0291H3.65415V10.2413H0.398814Z" fill="white"/>
<path d="M1.61953 12.6047C1.08781 12.6081 1.08769 13.3892 1.61957 13.3925H3.65412V12.6047H1.61953Z" fill="white"/>
</svg>
